<svg xmlns="http://www.w3.org/2000/svg" width="22" height="21" fill="none"><path d="M14.855 20H3.16v-2.32l5.52-5.883c.758-.828 1.316-1.55 1.675-2.168.368-.617.551-1.203.551-1.758 0-.758-.191-1.351-.574-1.781-.383-.438-.93-.656-1.64-.656-.766 0-1.372.265-1.817.796-.438.524-.656 1.215-.656 2.075H2.82c0-1.04.246-1.989.739-2.848a5.245 5.245 0 0 1 2.109-2.016c.906-.492 1.934-.738 3.082-.738 1.758 0 3.121.422 4.09 1.266.976.844 1.465 2.035 1.465 3.574 0 .844-.22 1.703-.657 2.578-.437.875-1.187 1.895-2.25 3.059L7.52 17.27h7.335V20zM17.258 18.336c0-.54.18-.977.539-1.313.367-.335.824-.503 1.371-.503.555 0 1.012.168 1.371.503.367.336.55.774.55 1.313 0 .531-.179.965-.538 1.3-.36.329-.82.493-1.383.493-.555 0-1.012-.164-1.371-.492-.36-.336-.54-.77-.54-1.301z" fill="#99D4FF" /><path fill-rule="evenodd" clip-rule="evenodd" d="M14.855 20.045H1.16v-3.716l5.786-6.167c.732-.8 1.237-1.461 1.545-1.991l.005-.008c.302-.508.41-.918.41-1.247 0-.592-.147-.921-.32-1.116l-.007-.007c-.15-.173-.395-.314-.888-.314-.504 0-.815.16-1.05.438-.25.301-.422.746-.422 1.433v1H.82v-1c0-1.205.288-2.327.87-3.345l.004-.006a6.244 6.244 0 0 1 2.5-2.393C5.262 1.026 6.455.748 7.75.748c1.91 0 3.537.459 4.745 1.51 1.238 1.07 1.81 2.562 1.81 4.33 0 1.022-.266 2.034-.762 3.025-.496.992-1.314 2.09-2.406 3.286l-.006.007-2.285 2.409h6.01v4.73zm-8.335-3.73l3.878-4.09c1.063-1.165 1.813-2.184 2.25-3.059.438-.875.657-1.734.657-2.578 0-1.54-.489-2.73-1.465-3.574-.969-.844-2.332-1.266-4.09-1.266-1.148 0-2.176.246-3.082.738a5.245 5.245 0 0 0-2.11 2.016 5.5 5.5 0 0 0-.657 1.848c-.054.323-.08.656-.08 1h3.398c0-.86.218-1.551.656-2.075.445-.53 1.05-.796 1.816-.796.711 0 1.258.218 1.641.656.383.43.574 1.023.574 1.781 0 .555-.183 1.14-.55 1.758-.36.617-.918 1.34-1.676 2.168l-5.52 5.883v2.32h11.695v-2.73H6.52zm9.602-.984c.57-.522 1.276-.766 2.046-.766.772 0 1.482.24 2.05.77.59.541.872 1.254.872 2.046 0 .783-.277 1.49-.856 2.031l-.009.008c-.572.523-1.287.754-2.057.754-.767 0-1.476-.234-2.045-.754l-.01-.008c-.578-.541-.855-1.248-.855-2.031 0-.787.274-1.499.856-2.043l.008-.007zm3.417.737c-.36-.336-.816-.504-1.371-.504-.547 0-1.004.168-1.371.504-.36.336-.54.774-.54 1.313 0 .531.18.965.54 1.3.36.329.816.493 1.371.493.563 0 1.023-.164 1.383-.492.36-.336.539-.77.539-1.301 0-.54-.184-.977-.55-1.313z" fill="#0095FF" /></svg>