<svg class="flex--item mr12" xmlns="http://www.w3.org/2000/svg" width="22" height="21" fill="none"><path d="M10.387 19.955H7V6.9L2.957 8.154V5.4l7.066-2.53h.364v17.085zM16.258 18.291c0-.539.18-.977.539-1.313.367-.335.824-.503 1.371-.503.555 0 1.012.168 1.371.503.367.336.55.774.55 1.313 0 .531-.179.965-.538 1.3-.36.329-.82.493-1.383.493-.555 0-1.012-.164-1.371-.492-.36-.336-.54-.77-.54-1.301z" fill="#99D4FF" /><path fill-rule="evenodd" clip-rule="evenodd" d="M10.387 20H5V7.302L.957 8.556V3.741L8.85.914h1.537V20zM6 5.945V19h3.387V1.914h-.364L1.957 4.445V7.2L6 5.945zm9.122 9.34c.57-.521 1.276-.765 2.046-.765.772 0 1.482.24 2.05.77.59.541.872 1.254.872 2.046 0 .783-.277 1.49-.856 2.031l-.009.008c-.572.523-1.287.754-2.057.754-.767 0-1.476-.234-2.045-.754l-.01-.008c-.578-.541-.855-1.248-.855-2.031 0-.787.274-1.499.856-2.043l.008-.007zm3.417.738c-.36-.335-.816-.503-1.371-.503-.547 0-1.004.168-1.371.503-.36.336-.54.774-.54 1.313 0 .531.18.965.54 1.3.36.329.816.493 1.371.493.563 0 1.023-.164 1.383-.492.36-.336.539-.77.539-1.301 0-.54-.184-.977-.55-1.313z" fill="#0095FF" /></svg>