<svg class="flex--item mr12" xmlns="http://www.w3.org/2000/svg" width="22" height="21" fill="none"><path d="M6.605 9.924H8.41c.86 0 1.496-.215 1.91-.645.414-.43.621-1 .621-1.71 0-.688-.207-1.223-.62-1.606-.407-.383-.97-.574-1.688-.574-.649 0-1.192.18-1.63.539-.437.351-.655.812-.655 1.383H2.96c0-.891.238-1.688.715-2.391.484-.711 1.156-1.266 2.015-1.664.868-.399 1.82-.598 2.86-.598 1.804 0 3.219.434 4.242 1.301 1.023.86 1.535 2.047 1.535 3.562 0 .782-.238 1.5-.715 2.157a4.645 4.645 0 0 1-1.875 1.511c.961.344 1.676.86 2.145 1.547.476.688.715 1.5.715 2.438 0 1.515-.555 2.73-1.664 3.644-1.102.914-2.563 1.371-4.383 1.371-1.703 0-3.098-.449-4.184-1.347-1.078-.899-1.617-2.086-1.617-3.563h3.387c0 .64.238 1.164.715 1.57.484.407 1.078.61 1.78.61.806 0 1.434-.211 1.888-.633.46-.43.69-.996.69-1.699 0-1.703-.937-2.555-2.812-2.555H6.605V9.924zM17.258 18.291c0-.539.18-.977.539-1.313.367-.335.824-.503 1.371-.503.555 0 1.012.168 1.371.503.367.336.55.774.55 1.313 0 .531-.179.965-.538 1.3-.36.329-.82.493-1.383.493-.555 0-1.012-.164-1.371-.492-.36-.336-.54-.77-.54-1.301z" fill="#99D4FF"/><path fill-rule="evenodd" clip-rule="evenodd" d="M4.605 7.969H7.41c.709 0 1.035-.177 1.19-.339.201-.208.341-.512.341-1.017 0-.474-.134-.718-.3-.87l-.007-.007c-.171-.162-.461-.302-1.001-.302-.453 0-.761.12-.994.311l-.009.007c-.197.158-.282.33-.282.603v1H.96v-1c0-1.08.293-2.074.887-2.951l.001-.002c.597-.875 1.416-1.542 2.422-2.008l.003-.002C5.284.928 6.38.703 7.55.703c1.958 0 3.629.471 4.887 1.537 1.28 1.076 1.89 2.56 1.89 4.326 0 1.001-.31 1.924-.906 2.744a5.543 5.543 0 0 1-.741.832c.399.303.743.66 1.026 1.073.605.874.89 1.89.89 3.004 0 1.795-.673 3.3-2.026 4.415-1.325 1.099-3.032 1.6-5.02 1.6-1.886 0-3.52-.5-4.821-1.577l-.003-.002C1.407 17.555.75 16.08.75 14.325v-1h5.387v1c0 .353.115.595.36.806.284.236.641.373 1.136.373.63 0 .987-.162 1.205-.364.233-.218.373-.507.373-.968 0-.671-.18-.999-.376-1.176-.213-.194-.63-.379-1.437-.379H4.605V7.97zM9.52 15.87c-.454.422-1.082.633-1.887.633-.703 0-1.297-.203-1.781-.61-.477-.406-.715-.93-.715-1.57H1.75c0 .35.03.683.09 1 .195 1.023.704 1.877 1.527 2.563 1.086.898 2.48 1.347 4.184 1.347 1.82 0 3.281-.457 4.383-1.37 1.109-.915 1.664-2.13 1.664-3.645 0-.938-.239-1.75-.715-2.438a3.692 3.692 0 0 0-1.038-1.006 5.183 5.183 0 0 0-1.107-.54c.387-.176.736-.39 1.049-.642.312-.252.588-.542.826-.87a3.59 3.59 0 0 0 .715-2.157c0-1.515-.512-2.703-1.535-3.562-1.023-.867-2.438-1.3-4.242-1.3-1.04 0-1.992.198-2.86.597-.859.398-1.53.953-2.015 1.664-.29.429-.493.892-.606 1.39a4.494 4.494 0 0 0-.11 1h3.388c0-.57.218-1.03.656-1.382.437-.36.98-.54 1.629-.54.719 0 1.281.192 1.687.575.414.383.621.918.621 1.605 0 .711-.207 1.282-.62 1.711-.415.43-1.051.645-1.91.645H5.604v2.648h1.793c1.875 0 2.813.852 2.813 2.555 0 .703-.23 1.27-.691 1.7zm6.602-.585c.57-.522 1.276-.766 2.046-.766.772 0 1.482.24 2.05.77.59.541.872 1.254.872 2.046 0 .783-.277 1.49-.856 2.031l-.009.008c-.572.523-1.287.754-2.057.754-.767 0-1.476-.234-2.045-.754l-.01-.008c-.578-.541-.855-1.248-.855-2.031 0-.787.274-1.499.856-2.043l.008-.007zm3.417.737c-.36-.335-.816-.503-1.371-.503-.547 0-1.004.168-1.371.503-.36.336-.54.774-.54 1.313 0 .531.18.965.54 1.3.36.329.816.493 1.371.493.563 0 1.023-.164 1.383-.492.36-.336.539-.77.539-1.301 0-.54-.184-.977-.55-1.313z" fill="#0095FF"/></svg>